Coordinates
version=1
nRows=16
nColumns=30
inDegrees=yes

Units are S.I. units (second, meters, Newtons, ...)
Angles are in degrees.

endheader
time	floatyaw	floatroll	floatpitch	floatx	floaty	floatz	pro_sup_l	deviation_l	flexion_l	cmc_flexion_l	cmc_abduction_l	mp_flexion_l	ip_flexion_l	2mcp_flexion_l	2mcp_abduction_l	2pm_flexion_l	2md_flexion_l	3mcp_flexion_l	3mcp_abduction_l	3pm_flexion_l	3md_flexion_l	4mcp_flexion_l	4mcp_abduction_l	4pm_flexion_l	4md_flexion_l	5mcp_flexion_l	5mcp_abduction_l	5pm_flexion_l	5md_flexion_l
-1.495000	-160.147433	-5.066637	-73.570646	0.082119	-0.182044	-0.017484	102.899467	3.942807	-0.592615	17.269599	4.738250	-24.726527	-40.743844	28.459573	7.829644	42.196430	29.348615	24.139485	4.469952	43.040764	28.389233	12.632279	-4.491810	52.062855	35.739218	0.503723	-9.365588	61.351845	44.009252
-1.485000	-160.147433	-5.066637	-73.570646	0.082112	-0.182042	-0.017482	102.874155	3.930678	-0.589694	17.257008	4.805055	-24.760057	-40.778721	28.504711	7.832144	42.180675	29.331231	24.159780	4.475699	43.023341	28.376351	12.640078	-4.496910	52.070616	35.745766	0.510428	-9.371533	61.349549	44.000249
-1.475000	-160.147433	-5.066637	-73.570646	0.082106	-0.182043	-0.017480	102.854921	3.921959	-0.588809	17.249276	4.845579	-24.791467	-40.820877	28.543451	7.832844	42.162816	29.313231	24.182810	4.480437	43.002755	28.356977	12.641249	-4.501076	52.082329	35.750767	0.510715	-9.378886	61.357338	44.000156
-1.465000	-160.147433	-5.066637	-73.570646	0.082102	-0.182049	-0.017478	102.842009	3.916871	-0.589223	17.245683	4.862514	-24.815514	-40.860838	28.568909	7.832281	42.146737	29.299398	24.201657	4.484113	42.984085	28.337554	12.633739	-4.504141	52.100642	35.755215	0.504764	-9.386865	61.373843	44.005551
-1.455000	-160.147433	-5.066637	-73.570646	0.082099	-0.182057	-0.017477	102.832905	3.914210	-0.590249	17.243587	4.870186	-24.828349	-40.888148	28.578816	7.831779	42.137853	29.294366	24.210349	4.487085	42.974888	28.326707	12.619508	-4.506044	52.125785	35.760629	0.496915	-9.395291	61.394251	44.010668
-1.445000	-160.147433	-5.066637	-73.570646	0.082096	-0.182066	-0.017474	102.824237	3.912333	-0.591344	17.239032	4.885882	-24.828978	-40.896224	28.576280	7.832671	42.139356	29.299228	24.206523	4.489635	42.980973	28.330742	12.603572	-4.506842	52.154311	35.767857	0.492833	-9.403991	61.412456	44.010254
-1.435000	-160.147433	-5.066637	-73.570646	0.082092	-0.182073	-0.017470	102.813975	3.910099	-0.592077	17.228397	4.919784	-24.819642	-40.885436	28.568072	7.835580	42.149690	29.310170	24.192360	4.491652	43.002616	28.350121	12.591586	-4.506729	52.179857	35.776255	0.496172	-9.412185	61.423347	44.001907
-1.425000	-160.147433	-5.066637	-73.570646	0.082089	-0.182077	-0.017464	102.802585	3.907302	-0.592093	17.210273	4.969516	-24.804968	-40.862547	28.561348	7.840061	42.163265	29.320336	24.173320	4.492764	43.033612	28.378941	12.587245	-4.506070	52.195904	35.783824	0.506715	-9.418462	61.424343	43.986715
-1.415000	-160.147433	-5.066637	-73.570646	0.082087	-0.182077	-0.017459	102.792682	3.904571	-0.591071	17.186407	5.021965	-24.790282	-40.836914	28.560294	7.844767	42.173989	29.323900	24.155368	4.492800	43.063807	28.407663	12.590754	-4.505368	52.199061	35.788247	0.520812	-9.421361	61.415806	43.968290
-1.405000	-160.147433	-5.066637	-73.570646	0.082087	-0.182072	-0.017456	102.787639	3.902967	-0.588660	17.161017	5.060561	-24.779755	-40.815920	28.564333	7.848082	42.179017	29.319666	24.142284	4.492149	43.083640	28.427483	12.599060	-4.505144	52.190824	35.788070	0.533511	-9.420096	61.400525	43.951128
-1.395000	-160.147433	-5.066637	-73.570646	0.082091	-0.182062	-0.017455	102.789839	3.903415	-0.584500	17.138721	5.073729	-24.775202	-40.802402	28.569096	7.848974	42.179842	29.311656	24.134631	4.491652	43.088147	28.434006	12.607625	-4.505729	52.176707	35.783386	0.540944	-9.414950	61.382609	43.939194
-1.385000	-160.147433	-5.066637	-73.570646	0.082097	-0.182050	-0.017457	102.799220	3.906104	-0.578432	17.122264	5.060360	-24.776099	-40.795207	28.569842	7.847592	42.180096	29.306265	24.130761	4.492061	43.078463	28.428523	12.612670	-4.507114	52.163475	35.775831	0.541658	-9.407197	61.366199	43.935102
-1.375000	-160.147433	-5.066637	-73.570646	0.082103	-0.182036	-0.017461	102.812769	3.910155	-0.570797	17.111387	5.029989	-24.780741	-40.791813	28.565072	7.845196	42.182166	29.308127	24.128793	4.493492	43.060409	28.416596	12.612603	-4.508990	52.156376	35.768080	0.536414	-9.398688	61.354378	43.939873
-1.365000	-160.147433	-5.066637	-73.570646	0.082107	-0.182023	-0.017463	102.825376	3.913831	-0.562518	17.103433	4.997952	-24.787722	-40.790840	28.557659	7.843371	42.185671	29.317638	24.127984	4.495315	43.041261	28.404972	12.608029	-4.510954	52.157715	35.763035	0.526849	-9.391266	61.348692	43.953116
-1.355000	-160.147433	-5.066637	-73.570646	0.082108	-0.182013	-0.017464	102.831824	3.915244	-0.554835	17.095182	4.978118	-24.796759	-40.792846	28.552636	7.843008	42.188862	29.331619	24.128651	4.496604	43.026491	28.398482	12.600701	-4.512742	52.166908	35.762838	0.514037	-9.386218	61.349427	43.973431
-1.345000	-160.147433	-5.066637	-73.570646	0.082105	-0.182009	-0.017464	102.829068	3.913214	-0.548877	17.084699	4.976762	-24.808311	-40.799311	28.553423	7.843777	42.191329	29.346104	24.131112	4.496803	43.018072	28.398383	12.592394	-4.514367	52.181461	35.768061	0.497936	-9.383944	61.356318	43.998864
